{
  "title": "John Wick 2014 BRRip XviD-PsiX",
  "uid": 11674178,
  "size": 733926774,
  "categoryP": "video",
  "categoryS": "movies",
  "magnet": "?xt=urn:btih:8d14345353c8600670615bf108c182f3ed8b2b67&amp;dn=John+Wick+2014+BRRip+XviD-PsiX&amp;tr=udp%3A%2F%2Ftracker.openbittorrent.com%3A80&amp;tr=udp%3A%2F%2Fopen.demonii.com%3A1337&amp;tr=udp%3A%2F%2Ftracker.coppersurfer.tk%3A6969&amp;tr=udp%3A%2F%2Fexodus.desync.com%3A6969",
  "seeders": 212,
  "leechers": 47,
  "uploader": "psix2",
  "files": 4,
  "time": 1422788271,
  "description": " &lt;a href=&quot;http://i.imgbox.com/tYMHefCf.jpg&quot; rel=&quot;nofollow&quot; target=&quot;_NEW&quot;&gt;http://i.imgbox.com/tYMHefCf.jpg&lt;/a&gt;\n\nAn ex-hitman comes out of retirement to track down the gangsters that\ntook everything from him.\n\nDirectors:\nChad Stahelski, David Leitch \nWriter:\nDerek Kolstad (screenplay)\nStars:\nKeanu Reeves, Michael Nyqvist, Alfie Allen[/b]\n &lt;a href=&quot;\nhttp://i.imgbox.com/Ym5P1Wez.png&quot; rel=&quot;nofollow&quot; target=&quot;_NEW&quot;&gt;\nhttp://i.imgbox.com/Ym5P1Wez.png&lt;/a&gt; &lt;a href=&quot;\nhttp://i.imgbox.com/MX7JyNzR.png&quot; rel=&quot;nofollow&quot; target=&quot;_NEW&quot;&gt;\nhttp://i.imgbox.com/MX7JyNzR.png&lt;/a&gt; &lt;a href=&quot;\nhttp://i.imgbox.com/jaSA7AzA.png&quot; rel=&quot;nofollow&quot; target=&quot;_NEW&quot;&gt;\nhttp://i.imgbox.com/jaSA7AzA.png&lt;/a&gt; &lt;a href=&quot;\nhttp://i.imgbox.com/MNRf8Nxq.png&quot; rel=&quot;nofollow&quot; target=&quot;_NEW&quot;&gt;\nhttp://i.imgbox.com/MNRf8Nxq.png&lt;/a&gt;\n\nFormat : AVI\nFormat/Info : Audio Video Interleave\nFile size : 695 MiB\nDuration : 1h 41mn\nOverall bit rate : 960 Kbps\n\nVideo\nID : 0\nFormat : MPEG-4 Visual\nFormat profile : Advanced Simple@L5\nFormat settings, BVOP : 2\nFormat settings, QPel : No\nFormat settings, GMC : No warppoints\nFormat settings, Matrix : Default (H.263)\nMuxing mode : Packed bitstream\nCodec ID : XVID\nCodec ID/Hint : XviD\nDuration : 1h 41mn\nBit rate : 826 Kbps\nWidth : 640 pixels\nHeight : 272 pixels\nDisplay aspect ratio : 2.35:1\nFrame rate : 23.976 fps\nColor space : YUV\nChroma subsampling : 4:2:0\nBit depth : 8 bits\nScan type : Progressive\nCompression mode : Lossy\nBits/(Pixel*Frame) : 0.198\nStream size : 598 MiB (86%)\nWriting library : XviD 1.2.1 (UTC 2008-12-04)\n\nAudio\nID : 1\nFormat : MPEG Audio\nFormat version : Version 1\nFormat profile : Layer 3\nMode : Joint stereo\nCodec ID : 55\nCodec ID/Hint : MP3\nDuration : 1h 41mn\nBit rate mode : Constant\nBit rate : 128 Kbps\nChannel(s) : 2 channels\nSampling rate : 48.0 KHz\nCompression mode : Lossy\nStream size : 92.7 MiB (13%)\nAlignment : Aligned on interleaves\nInterleave, duration : 167 ms (4.00 video frames)\nInterleave, preload duration : 216 ms\nTitle : English\nWriting library : LAME3.99r\nEncoding settings : -m j -V 4 -q 2 -lowpass 17 -b 128\n\nSource....: 720p-SPARKS [Thanks]\nAudio.............: English\nSample....: Yes\nSubs....: English srt\nEncoded....: PsiX\n\nGreetz....: tomcat-12 | Blacksheep | FWOLF | CFR | REMALiA",
  "parsed": {
    "xt": "urn:btih:8d14345353c8600670615bf108c182f3ed8b2b67",
    "dn": "John Wick 2014 BRRip XviD-PsiX",
    "tr": [
      "udp://exodus.desync.com:6969",
      "udp://open.demonii.com:1337",
      "udp://tracker.coppersurfer.tk:6969",
      "udp://tracker.openbittorrent.com:80"
    ],
    "infoHash": "8d14345353c8600670615bf108c182f3ed8b2b67",
    "infoHashBuffer": {
      "type": "Buffer",
      "data": [
        141,
        20,
        52,
        83,
        83,
        200,
        96,
        6,
        112,
        97,
        91,
        241,
        8,
        193,
        130,
        243,
        237,
        139,
        43,
        103
      ]
    },
    "name": "John Wick 2014 BRRip XviD-PsiX",
    "announce": [
      "udp://exodus.desync.com:6969",
      "udp://open.demonii.com:1337",
      "udp://tracker.coppersurfer.tk:6969",
      "udp://tracker.openbittorrent.com:80"
    ],
    "urlList": []
  },
  "previous": 259,
  "peers": 27,
  "last_updated": "2016-12-25T07:26:34.521Z"
}